<?xml version="1.0" encoding="UTF-8"?>
<svg width="16px" height="16px" viewBox="0 0 16 16" version="1.1" xmlns="http://www.w3.org/2000/svg" xmlns:xlink="http://www.w3.org/1999/xlink">
    <title>icon/校园活动/地点</title>
    <defs>
        <filter id="filter-1">
            <feColorMatrix in="SourceGraphic" type="matrix" values="0 0 0 0 0.176471 0 0 0 0 0.443137 0 0 0 0 0.972549 0 0 0 1.000000 0"></feColorMatrix>
        </filter>
    </defs>
    <g id="icon/校园活动/地点" stroke="none" stroke-width="1" fill="none" fill-rule="evenodd">
        <g filter="url(#filter-1)" id="编组">
            <g transform="translate(2.000000, 1.000000)">
                <path d="M6,-8.8817842e-16 C2.68877515,-8.8817842e-16 0,2.62902459 0,5.87777778 C0,7.34398304 0.550684531,8.72712827 1.52835743,9.79695857 L5.62761089,14.3721176 L6.37187748,14.3726877 L10.4841227,9.79718914 C11.4511797,8.73336024 12,7.34134019 12,5.87777778 C12,2.62902459 9.31122485,-8.8817842e-16 6,-8.8817842e-16 Z M6,1 C8.7639074,1 11,3.18640166 11,5.87777778 L10.9930814,6.13658914 C10.933287,7.25349546 10.48809,8.30616999 9.74226287,9.12664008 L6,13.289 L2.26983957,9.12600395 C1.45524994,8.23459371 1,7.09114994 1,5.87777778 C1,3.18640166 3.2360926,1 6,1 Z" id="路径" fill="#548EFF" fill-rule="nonzero"></path>
                <path d="M6,3.43333333 C7.38071187,3.43333333 8.5,4.55262146 8.5,5.93333333 C8.5,7.31404521 7.38071187,8.43333333 6,8.43333333 C4.61928813,8.43333333 3.5,7.31404521 3.5,5.93333333 C3.5,4.55262146 4.61928813,3.43333333 6,3.43333333 Z M6,4.43333333 C5.17157288,4.43333333 4.5,5.10490621 4.5,5.93333333 C4.5,6.76176046 5.17157288,7.43333333 6,7.43333333 C6.82842712,7.43333333 7.5,6.76176046 7.5,5.93333333 C7.5,5.10490621 6.82842712,4.43333333 6,4.43333333 Z" id="椭圆形" fill="#548EFF" fill-rule="nonzero"></path>
            </g>
        </g>
    </g>
</svg>