<?xml version="1.0" encoding="UTF-8"?>
<svg width="20px" height="20px" viewBox="0 0 20 20" version="1.1" xmlns="http://www.w3.org/2000/svg" xmlns:xlink="http://www.w3.org/1999/xlink">
    <title>icon/首页/个人中心</title>
    <g id="icon/首页/个人中心" stroke="none" stroke-width="1" fill="none" fill-rule="evenodd">
        <path d="M10,0 C4.4771523,0 0,4.47719687 0,10.0000501 C0,15.5228633 4.4771523,20 10,20 C15.5228477,20 20,15.5228432 20,10.0000501 C20,4.47719687 15.5228477,0 10,0 Z M16.3314146,16.3902971 C16.3333995,16.3902771 16.3354245,16.3902771 16.3373894,16.390257 C14.7108323,18.0034425 12.4718351,19.0000571 10,19.0000571 C7.52295197,19.0000571 5.27970422,17.9992722 3.65232507,16.3800918 C3.65310701,16.3800918 3.653909,16.3800918 3.6546709,16.3800717 C3.53748002,16.2779983 3.4336423,16.1709926 3.34494215,16.0589343 C4.7439946,13.7321369 7.08721047,12.4999975 10,12.4999975 C12.9935099,12.4999975 15.0577333,13.7951935 16.6550378,16.0590145 C16.5621873,16.1748622 16.4537582,16.2852563 16.3314146,16.3902971 Z M6.99999398,8.50003659 C6.99999398,6.84319165 8.3431477,5.50003659 9.99999398,5.50003659 C11.6568523,5.50003659 13.000006,6.84319165 13.000006,8.50003659 C13.000006,10.1568996 11.6568523,11.5000546 9.99999398,11.5000546 C8.3431477,11.5000546 6.99999398,10.1568996 6.99999398,8.50003659 Z M12.274786,11.7902953 C13.3171331,11.0683026 13.9999819,9.86401234 13.9999819,8.50006314 C13.9999819,6.29092035 12.2091431,4.50001354 9.99998192,4.50001354 C7.7908168,4.50001354 5.99997191,6.29092037 5.99997191,8.50006314 C5.99997191,9.86403238 6.68284681,11.0683226 7.7251939,11.7903153 C5.66764707,12.326206 3.89657127,13.5716384 2.6891745,15.2500058 C1.62617613,13.7722966 0.999981923,11.959335 0.999981923,10.0000631 C0.999981923,5.02950825 5.02942299,1.00006314 9.99998192,1.00006314 C14.9705368,1.00006314 18.9999819,5.02950825 18.9999819,10.0000631 C18.9999819,11.9593551 18.3737637,13.7723166 17.3107452,15.2500058 C16.1033886,13.5716584 14.3323128,12.3261859 12.274786,11.7902953 Z" id="形状" fill="#000000" fill-rule="nonzero"></path>
    </g>
</svg>