<?xml version="1.0" encoding="UTF-8"?>
<svg width="16px" height="16px" viewBox="0 0 16 16" version="1.1" xmlns="http://www.w3.org/2000/svg" xmlns:xlink="http://www.w3.org/1999/xlink">
    <title>icon/个人中心/修改密码/蓝</title>
    <g id="icon/个人中心/修改密码/蓝" stroke="none" stroke-width="1" fill="none" fill-rule="evenodd">
        <path d="M16,5 L16,16 L1,16 L1,5 L16,5 Z M15,6 L2,6 L2,15 L15,15 L15,6 Z" id="矩形" fill="#2D71F8" fill-rule="nonzero"></path>
        <path d="M8.44444444,0 C5.72476229,0 3.5,2.00228606 3.5,4.5 L3.5,6 L13.5586325,6 L13.3858308,4.44478424 C13.3888889,2.00228606 11.1641266,0 8.44444444,0 Z M8.65493206,1.00488903 C10.7453551,1.10225406 12.3888889,2.64138962 12.3888889,4.5 L12.443,5 L4.5,5 L4.5,4.5 C4.5,2.57943594 6.25492882,1 8.44444444,1 L8.65493206,1.00488903 Z" id="路径" fill="#2D71F8" fill-rule="nonzero"></path>
        <path d="M8.44444444,7.11111111 C9.67174389,7.11111111 10.6666667,8.10603389 10.6666667,9.33333333 C10.6666667,10.5606328 9.67174389,11.5555556 8.44444444,11.5555556 C7.217145,11.5555556 6.22222222,10.5606328 6.22222222,9.33333333 C6.22222222,8.10603389 7.217145,7.11111111 8.44444444,7.11111111 Z M8.44444444,8.11111111 C7.76942975,8.11111111 7.22222222,8.65831864 7.22222222,9.33333333 C7.22222222,10.008348 7.76942975,10.5555556 8.44444444,10.5555556 C9.11945914,10.5555556 9.66666667,10.008348 9.66666667,9.33333333 C9.66666667,8.65831864 9.11945914,8.11111111 8.44444444,8.11111111 Z" id="椭圆形" fill="#2D71F8" fill-rule="nonzero"></path>
        <polygon id="矩形" fill="#2D71F8" points="8 11 9 11 9 14 8 14"></polygon>
    </g>
</svg>