<?xml version="1.0" encoding="UTF-8"?>
<svg width="16px" height="16px" viewBox="0 0 16 16" version="1.1" xmlns="http://www.w3.org/2000/svg" xmlns:xlink="http://www.w3.org/1999/xlink">
    <title>icon/个人中心/我的考勤/蓝</title>
    <g id="icon/个人中心/我的考勤/蓝" stroke="none" stroke-width="1" fill="none" fill-rule="evenodd">
        <path d="M16,3 L0,3 L0,16 L16,16 L16,3 Z M15,4 L15,15 L1,15 L1,4 L15,4 Z" id="矩形" fill="#2D71F8" fill-rule="nonzero"></path>
        <polygon id="直线-2" fill="#2D71F8" fill-rule="nonzero" points="4 0 4 3.5 3 3.5 3 0"></polygon>
        <polygon id="直线-2备份" fill="#2D71F8" fill-rule="nonzero" points="13 0 13 3.5 12 3.5 12 0"></polygon>
        <polygon id="矩形" fill="#2D71F8" points="1 6 16 6 16 7 1 7"></polygon>
        <polygon id="路径" fill="#2D71F8" points="4.44444444 10.7980569 5.20634921 9.99861207 7.49203968 12.3969466 11.6825397 8 12.4444444 8.79944483 11.9563373 9.31157668 11.9603175 9.31575295 7.49603175 14"></polygon>
    </g>
</svg>