<?xml version="1.0" encoding="UTF-8"?>
<svg width="16px" height="16px" viewBox="0 0 16 16" version="1.1" xmlns="http://www.w3.org/2000/svg" xmlns:xlink="http://www.w3.org/1999/xlink">
    <title>icon/个人中心/我的活动/蓝</title>
    <g id="icon/个人中心/我的活动/蓝" stroke="none" stroke-width="1" fill="none" fill-rule="evenodd">
        <path d="M16,0.888888889 L16.0001915,5.96260243 C15.2152426,6.30547276 14.6666667,7.08867299 14.6666667,8 C14.6666667,8.91132701 15.2152426,9.69452724 16.0001915,10.0373976 L16,15.1111111 L5.3211756e-13,15.1111111 L0.000722439378,10.0369981 C0.785183132,9.69391922 1.33333333,8.91097328 1.33333333,8 C1.33333333,7.08902672 0.785183132,6.30608078 0.000722439378,5.96300188 L5.3211756e-13,0.888888889 L16,0.888888889 Z M15,1.888 L0.999,1.888 L1,5.391 L1.08031479,5.44901886 C1.80289968,6.00708226 2.26817782,6.85679886 2.32700341,7.79717616 L2.33333333,8 C2.33333333,9.02032503 1.85451289,9.95305607 1.08031479,10.5509811 L1,10.608 L0.999,14.111 L15,14.111 L15,10.609 L14.9205821,10.5516743 C14.1975202,9.99364731 13.7318742,9.14365418 13.6730017,8.20290492 L13.6666667,8 C13.6666667,6.97926303 14.1458729,6.04621176 14.9205821,5.4483257 L15,5.39 L15,1.888 Z" id="形状结合" fill="#2D71F8" fill-rule="nonzero"></path>
        <polygon id="路径-10" fill="#2D71F8" fill-rule="nonzero" points="5 5.5 5 12 4 12 4 5.5"></polygon>
        <path d="M12.5,4 L4,4 L4,9 L12.5,9 L10.624,6.5 L12.5,4 Z M10.499,5 L9.375,6.5 L10.499,8 L4.999,8 L4.999,5 L10.499,5 Z" id="路径-9" fill="#2D71F8" fill-rule="nonzero"></path>
    </g>
</svg>