<?xml version="1.0" encoding="utf-8"?>
<!-- Generator: Adobe Illustrator 22.1.0, SVG Export Plug-In . SVG Version: 6.00 Build 0)  -->
<svg version="1.1" id="图层_1" xmlns="http://www.w3.org/2000/svg" xmlns:xlink="http://www.w3.org/1999/xlink" x="0px" y="0px"
	 viewBox="0 0 153.3 58" style="enable-background:new 0 0 153.3 58;" xml:space="preserve">
<style type="text/css">
	.st0{fill:#1BC8F5;}
	.st1{fill:#0371EF;}
</style>
<g>
	<g>
		<g>
			<g>
				<path class="st0" d="M21.8,6c-0.5,0-1-0.3-1.3-0.7c-0.4-0.7-0.2-1.6,0.5-2L26,0.3c0.7-0.4,1.6-0.2,2,0.5c0.4,0.7,0.2,1.6-0.5,2
					l-4.9,2.9C22.4,5.9,22.1,6,21.8,6z"/>
			</g>
		</g>
		<g>
			<g>
				<path class="st0" d="M1.5,31.7c-0.8,0-1.5-0.7-1.5-1.5V18.5c0-1.6,0.9-3.2,2.3-4l14-8.4c0.7-0.4,1.6-0.2,2,0.5
					c0.4,0.7,0.2,1.6-0.5,2L3.8,17c-0.5,0.3-0.9,0.9-0.9,1.5v11.7C2.9,31.1,2.3,31.7,1.5,31.7z"/>
			</g>
		</g>
		<g>
			<g>
				<path class="st1" d="M1.5,45C0.7,45,0,44.3,0,43.5v-7.4c0-0.8,0.7-1.5,1.5-1.5s1.5,0.7,1.5,1.5v7.4C2.9,44.3,2.3,45,1.5,45z"/>
			</g>
		</g>
		<g>
			<g>
				<path class="st0" d="M22.8,14c-0.5,0-1-0.3-1.3-0.7c-0.4-0.7-0.2-1.6,0.5-2l11.8-7c0.7-0.4,1.6-0.2,2,0.5c0.4,0.7,0.2,1.6-0.5,2
					l-11.8,7C23.3,13.9,23,14,22.8,14z"/>
			</g>
		</g>
		<g>
			<g>
				<path class="st1" d="M9.2,29.1c-0.8,0-1.5-0.7-1.5-1.5v-5.2c0-1.6,0.9-3.2,2.3-4l7.4-4.4c0.7-0.4,1.6-0.2,2,0.5
					c0.4,0.7,0.2,1.6-0.5,2l-7.4,4.4c-0.5,0.3-0.9,0.9-0.9,1.5v5.2C10.7,28.5,10,29.1,9.2,29.1z"/>
			</g>
		</g>
		<g>
			<g>
				<path class="st1" d="M9.2,48.9c-0.8,0-1.5-0.7-1.5-1.5V33.6c0-0.8,0.7-1.5,1.5-1.5s1.5,0.7,1.5,1.5v13.8
					C10.7,48.2,10,48.9,9.2,48.9z"/>
			</g>
		</g>
		<g>
			<g>
				<path class="st1" d="M18.9,54.6c-0.6,0-1.1-0.1-1.6-0.4c-1.1-0.6-1.7-1.7-1.7-2.9v-25c0-1.6,0.9-3.2,2.3-4L38.7,9.8
					c1-0.6,2.3-0.6,3.4,0c1.1,0.6,1.7,1.7,1.7,2.9v25c0,1.6-0.9,3.2-2.3,4L20.6,54.1C20.1,54.5,19.5,54.6,18.9,54.6z M40.4,12.2
					c-0.1,0-0.1,0-0.2,0.1L19.3,24.8c-0.5,0.3-0.9,0.9-0.9,1.5v25c0,0.2,0.1,0.3,0.2,0.4c0.1,0.1,0.2,0.1,0.4,0L40,39.2
					c0.5-0.3,0.9-0.9,0.9-1.5v-25c0-0.2-0.1-0.3-0.2-0.4C40.6,12.3,40.5,12.2,40.4,12.2z"/>
			</g>
		</g>
		<g>
			<g>
				<path class="st1" d="M48.9,44.6l-21.7,13c-1.3,0.8-3-0.2-3-1.7V30c0-1.2,0.6-2.3,1.6-2.9l21.7-13c1.3-0.8,3,0.2,3,1.7v25.9
					C50.6,42.9,50,44,48.9,44.6z"/>
			</g>
		</g>
	</g>
	<g>
		<g>
			<path d="M69.1,21.5h-3l0.3-1.7h3.9c0.3-0.6,0.5-1.2,0.7-1.8h-1.6c-0.8,0.6-1.6,1.2-2.7,1.5l0.4-2.2c1.1-0.5,1.9-1.5,2.3-2.4h2.2
				c-0.2,0.5-0.4,1-0.7,1.4h5.4L76,18h-2.8c-0.2,0.6-0.4,1.2-0.6,1.8h4l-0.3,1.7h-4.7c-0.1,0.2-0.2,0.4-0.4,0.5h2
				c0.8,0.8,1.6,1.6,2.9,2.7h-3c-0.6-0.6-1.3-1.5-2.1-2.5c-0.7,1-1.9,2-2.6,2.5h-3C66.7,23.9,68,22.8,69.1,21.5z M83.1,27.5l-1,7.4
				H66.2l1.3-9.2h14.3C83.2,25.7,83.3,26.1,83.1,27.5z M80,33.1l0.2-1.9H69.1l-0.2,1.9H80z M69.6,27.6l-0.2,1.9h11.2l0.2-1.5
				c0-0.2,0-0.3-0.2-0.3H69.6z M85.7,17.3l-1,7.3h-8l1.3-8.6h6.7C85.6,16,85.8,16.3,85.7,17.3z M83.2,17.8H80l-0.7,5h3.5l0.7-4.7
				C83.5,17.9,83.4,17.8,83.2,17.8z"/>
			<path d="M89.2,30.3h2.5c-0.7,1.5-1.6,2.8-2.6,4.1h-2.8C87.3,33.1,88.3,31.8,89.2,30.3z M92.1,22h-3.5l0.2-1.6h3.5l0.1-0.8h-2.6
				l0.3-1.5h2.6l0.1-0.8h-3.2l0.2-1.6h3.1l0.1-1h2.4l-0.1,1h3.2l-0.3,1.6h-3.1L95,18.2h2.8l-0.3,1.5h-2.7l-0.1,0.8h3.2L97.6,22h-3.1
				l-0.1,0.6H92L92.1,22z M105.5,29.6H88.7L89,28h14.3l0.1-0.9H90l0.2-1.6h13.3l0.1-0.4c0-0.3-0.1-0.4-0.3-0.4H89.4l0.3-1.6h15.2
				c1.1,0,1.4,0.4,1.3,1.5L105.5,29.6z M94.6,33h8.1l-0.6,1.9H91.7l1-4.9h2.4L94.6,33z M96.7,30H99c0.4,0.9,0.8,1.6,1.4,2.4h-2.7
				C97.3,31.6,97,30.9,96.7,30z M104.7,17.4l-0.1,0.8h3.2l-0.2,1.5h-3.1l-0.1,0.8h3.9l-0.2,1.6H104l-0.1,0.6h-2.4l0.1-0.6h-3.5
				l0.3-1.6h3.5l0.1-0.8h-2.9l0.3-1.5h2.8l0.1-0.8h-3.5l0.3-1.6h3.4l0.2-1h2.4l-0.1,1h3.6l-0.2,1.6H104.7z M104.6,30.3
				c0.7,1.3,1.5,2.7,2.4,4.1h-2.9c-0.7-1.4-1.4-2.9-1.9-4.1H104.6z"/>
			<path d="M116.4,30.9l-0.6,4h-4.4l-0.6-1.9h2.8l0.2-1.7c-1.4,0.2-2.7,0.4-4,0.6l-0.5-1.9c1.6-0.2,3.2-0.4,4.8-0.7l0.2-1.7
				c0.9-0.6,1.8-1.3,2.4-1.9c0.2-0.2,0.1-0.2-0.2-0.2h-0.8c-1.9,1.5-4.1,3-6.7,4.2l0.6-2.5c0.9-0.4,2.2-1.1,3.2-1.7h-2.1l-0.4-1.8
				h4.8c0.5-0.5,1-1,1.5-1.5h-6l0.3-1.8h3.1l0.3-2.1h-2.5l0.3-1.8h2.5l0.3-1.8h2.3l-0.3,1.8h2.2l-0.3,1.8h-2.2l-0.3,2.1h1.7
				c0.9-1.5,1.6-3.3,1.9-4.9h2.5c-0.4,1.7-1.1,3.3-2,4.9h1.4l-0.3,1.8h-2.4c-0.4,0.5-0.9,1-1.4,1.5h1.5c0.6,0,0.9,0.2,0.9,0.6
				c0,0.4-0.2,0.8-0.7,1.4c-0.6,0.6-1.8,1.7-2.8,2.4l-0.1,0.7c1.4-0.2,2.7-0.5,4-0.8l-0.3,2C119.1,30.4,117.8,30.7,116.4,30.9z
				 M129.5,21c-0.6,3-1.8,5.7-3.3,8.1c0.9,2.1,2.1,4.1,3.2,5.8h-2.9c-0.5-0.9-1.2-2.3-1.8-3.8c-1.1,1.4-2.3,2.7-3.5,3.8h-3.3
				c2.2-1.7,4.4-4,5.9-6c-0.5-1.4-1-2.9-1.4-4.2c-0.6,0.6-1.3,1.1-2.1,1.6l0.4-2.8c1.7-1.3,3.5-5.2,4.2-8.7h2.3
				c-0.3,1.4-0.7,2.8-1.2,4.1h5.2l-0.2,2.1H129.5z M127.1,21h-2.1c-0.6,1.2-1.4,2.3-2.3,3.3h1.8c0.2,0.7,0.4,1.5,0.7,2.3
				C126,24.9,126.7,23,127.1,21z"/>
			<path d="M150.4,24.7L149,34.9h-5l-0.6-1.7h3.3l0.2-1.9h-10.4l-0.5,3.6h-2.6l1.6-11.7h14.2C150.1,23.3,150.6,23.5,150.4,24.7z
				 M139.3,20.3h7.9c-0.3-0.4-0.6-0.8-0.9-1.2h2.8c0.8,1,1.9,2.4,3.2,3.6h-3.1c-0.4-0.5-0.9-1-1.3-1.6l-0.6,1h-13.1
				c1.5-1.3,2.8-2.4,4.1-3.6h-4.6l0.3-2h8.1c-0.1-0.6-0.3-1.1-0.4-1.7h2.8c0.1,0.5,0.3,1.1,0.4,1.7h8.3l-0.3,2h-11.5
				C140.8,19.1,140.1,19.6,139.3,20.3z M147.2,29.6l0.2-1.5H137l-0.2,1.5H147.2z M137.4,25.1l-0.2,1.4h10.4l0.1-1
				c0-0.2,0-0.4-0.2-0.4H137.4z"/>
		</g>
		<g>
			<path d="M71.8,39.7l-2.2,5.5h-1.2l-0.2-4.1l-1.8,4.1h-1.2l-0.1-5.5h1l0,4.3l1.9-4.3H69l0.2,4.3l1.7-4.3H71.8z"/>
			<path d="M72.5,39.7h1l-1,5.5h-1L72.5,39.7z"/>
			<path d="M73.7,44.4h1.9c0.5,0,0.6-0.1,0.6-0.6l0.1-0.4c0.1-0.3,0.1-0.4,0.1-0.5c0-0.2-0.1-0.2-0.4-0.2h-1.1
				c-0.6,0-0.8-0.2-0.8-0.7c0-0.2,0-0.3,0.1-0.6l0.1-0.8c0.2-0.9,0.4-1.1,1.3-1.1h2.2l-0.3,0.8h-1.8c-0.3,0-0.4,0.1-0.5,0.4
				l-0.1,0.5c0,0.2-0.1,0.3-0.1,0.4c0,0.1,0.1,0.2,0.3,0.2h0.9c0.6,0,1,0.1,1,0.6c0,0.2-0.1,0.6-0.1,0.8l-0.1,0.7
				c-0.2,1-0.6,1.1-1.6,1.1h-1.7L73.7,44.4z"/>
			<path d="M82.6,41.1c0,0.3,0,0.6-0.1,0.9L82.3,43c-0.3,1.9-0.8,2.3-2.3,2.3h-2.2l1-5.5h1.9C82.1,39.7,82.6,40.1,82.6,41.1z
				 M81.6,41.3c0-0.6-0.3-0.7-1.1-0.7h-0.9l-0.7,3.9h0.9c1.1,0,1.3-0.2,1.5-1.4l0.2-0.9C81.6,41.7,81.6,41.5,81.6,41.3z"/>
			<path d="M83,44.2c0-0.2,0-0.5,0.1-0.9l0.4-2.2c0.2-1.1,0.6-1.4,1.6-1.4h1.2c1,0,1.4,0.3,1.4,1.1c0,0.2,0,0.5-0.1,0.9l-0.4,2.2
				c-0.2,1.1-0.6,1.4-1.6,1.4h-1.2C83.4,45.3,83,45,83,44.2z M85.5,44.5c0.6,0,0.7-0.2,0.8-1l0.3-1.5c0.1-0.5,0.1-0.8,0.1-1
				c0-0.4-0.3-0.5-0.9-0.5h-0.7c-0.6,0-0.7,0.2-0.8,1L84.1,43C84,43.5,84,43.8,84,44c0,0.4,0.2,0.5,0.9,0.5H85.5z"/>
			<path d="M94.6,40.7c0,0.3-0.1,0.6-0.1,1l-0.6,3.5h-1l0.6-3.2c0.1-0.5,0.1-0.8,0.1-1.1c0-0.4-0.2-0.4-0.8-0.4h-0.6l-0.8,4.7h-1
				l0.8-4.7h-1.4L89,45.2h-1l1-5.5h4.1C94.2,39.7,94.6,39.9,94.6,40.7z"/>
			<path d="M98.6,40.5l-0.3,1.5h1.9l-0.3,0.8h-1.7l-0.3,1.6h2.2l-0.3,0.8h-3l1-5.5h3.1l-0.3,0.8H98.6z"/>
			<path d="M105.6,41.1c0,0.3,0,0.6-0.1,0.9l-0.2,0.9c-0.3,1.9-0.8,2.3-2.3,2.3h-2.2l1-5.5h1.9C105,39.7,105.6,40.1,105.6,41.1z
				 M104.6,41.3c0-0.6-0.3-0.7-1.1-0.7h-0.9l-0.7,3.9h0.9c1.1,0,1.3-0.2,1.5-1.4l0.2-0.9C104.6,41.7,104.6,41.5,104.6,41.3z"/>
			<path d="M106,44.2c0-0.2,0-0.5,0.1-0.9l0.6-3.6h1l-0.6,3.3c-0.1,0.5-0.1,0.8-0.1,1c0,0.4,0.2,0.5,0.9,0.5h0.4
				c0.6,0,0.7-0.2,0.8-1l0.7-3.8h1l-0.7,4.1c-0.2,1.1-0.5,1.4-1.6,1.4h-0.9C106.5,45.3,106,45,106,44.2z"/>
			<path d="M111,44.1c0-0.2,0-0.5,0.1-0.9l0.4-2.1c0.2-1.1,0.6-1.4,1.6-1.4h1.8l-0.3,0.8h-1.4c-0.6,0-0.7,0.2-0.8,1l-0.3,1.5
				c-0.1,0.5-0.1,0.8-0.1,1c0,0.4,0.3,0.5,0.9,0.5h1.4l-0.3,0.8h-1.4C111.4,45.2,111,45,111,44.1z"/>
			<path d="M119.5,40.8c0,0.3,0,0.6-0.1,1l-0.6,3.4h-1l0.4-2.1h-2l-0.4,2.1h-1l0.7-3.9c0.3-1.4,0.6-1.6,2.1-1.6h0.2
				C119,39.7,119.5,40,119.5,40.8z M118.3,42.3l0.1-0.6c0.1-0.3,0.1-0.6,0.1-0.8c0-0.4-0.2-0.5-0.8-0.5h-0.2c-0.8,0-0.9,0.2-1.1,1
				l-0.2,0.9H118.3z"/>
			<path d="M123.7,40.5h-1.3l-0.8,4.7h-1l0.8-4.7H120l0.1-0.8h3.7L123.7,40.5z"/>
			<path d="M124.5,39.7h1l-1,5.5h-1L124.5,39.7z"/>
			<path d="M125.8,44.2c0-0.2,0-0.5,0.1-0.9l0.4-2.2c0.2-1.1,0.6-1.4,1.6-1.4h1.2c1,0,1.4,0.3,1.4,1.1c0,0.2,0,0.5-0.1,0.9l-0.4,2.2
				c-0.2,1.1-0.6,1.4-1.6,1.4h-1.2C126.2,45.3,125.8,45,125.8,44.2z M128.3,44.5c0.6,0,0.7-0.2,0.8-1l0.3-1.5c0.1-0.5,0.1-0.8,0.1-1
				c0-0.4-0.3-0.5-0.9-0.5H128c-0.6,0-0.7,0.2-0.8,1l-0.3,1.5c-0.1,0.5-0.1,0.8-0.1,1c0,0.4,0.2,0.5,0.9,0.5H128.3z"/>
			<path d="M135.6,40.7c0,0.3-0.1,0.6-0.1,1l-0.6,3.5h-1l0.6-3.2c0.1-0.5,0.1-0.8,0.1-1.1c0-0.4-0.2-0.4-0.8-0.4h-1.2l-0.8,4.7h-1
				l1-5.5h2.3C135.2,39.7,135.6,39.9,135.6,40.7z"/>
		</g>
	</g>
</g>
</svg>
