<?xml version="1.0" encoding="UTF-8"?>
<svg width="54px" height="54px" viewBox="0 0 54 54" version="1.1" xmlns="http://www.w3.org/2000/svg" xmlns:xlink="http://www.w3.org/1999/xlink">
    <title>icon/首页/校园活动</title>
    <defs>
        <linearGradient x1="0%" y1="44.1874337%" x2="100%" y2="44.1874337%" id="linearGradient-1">
            <stop stop-color="#2870FF" offset="0%"></stop>
            <stop stop-color="#368CFF" offset="100%"></stop>
        </linearGradient>
        <linearGradient x1="100%" y1="50%" x2="0%" y2="50%" id="linearGradient-2">
            <stop stop-color="#4A98FF" offset="0%"></stop>
            <stop stop-color="#2870FF" offset="100%"></stop>
        </linearGradient>
    </defs>
    <g id="icon/首页/校园活动" stroke="none" stroke-width="1" fill="none" fill-rule="evenodd">
        <g id="编组-4">
            <path d="M46.2857143,0.25 C48.3383929,0.25 50.2043051,1.09000131 51.5571519,2.44284812 C52.9099987,3.79569494 53.75,5.66160714 53.75,7.71428571 L53.75,7.71428571 L53.75,46.2857143 C53.75,48.3383929 52.9099987,50.2043051 51.5571519,51.5571519 C50.2043051,52.9099987 48.3383929,53.75 46.2857143,53.75 L46.2857143,53.75 L7.71428571,53.75 C5.66160714,53.75 3.79569494,52.9099987 2.44284812,51.5571519 C1.09000131,50.2043051 0.25,48.3383929 0.25,46.2857143 L0.25,46.2857143 L0.25,7.71428571 C0.25,5.66160714 1.09000131,3.79569494 2.44284812,2.44284812 C3.79569494,1.09000131 5.66160714,0.25 7.71428571,0.25 L7.71428571,0.25 Z" id="路径" stroke="url(#linearGradient-1)" stroke-width="0.5" fill="#FFFFFF"></path>
            <path d="M14,48 L11,48 L11,12 C11,10.8954305 11.8954305,10 13,10 L31.4201613,10 C32.4445604,10 33.275,10.8304396 33.275,11.8548387 L33.275,12.7096774 C33.275,13.2619622 33.7227153,13.7096774 34.275,13.7096774 L42,13.7096774 C43.1045695,13.7096774 44,14.6051079 44,15.7096774 L44,31 C44,32.1045695 43.1045695,33 42,33 L23.5798387,33 C22.5554396,33 21.725,32.1695604 21.725,31.1451613 L21.725,30.2903226 C21.725,29.7380378 21.2772847,29.2903226 20.725,29.2903226 L14,29.29 L14,48 Z" id="形状结合" fill="url(#linearGradient-2)"></path>
        </g>
    </g>
</svg>