<?xml version="1.0" encoding="UTF-8"?>
<svg width="56px" height="56px" viewBox="0 0 56 56" version="1.1" xmlns="http://www.w3.org/2000/svg" xmlns:xlink="http://www.w3.org/1999/xlink">
    <title>icon/首页/创意模块</title>
    <defs>
        <linearGradient x1="0%" y1="44.1874337%" x2="100%" y2="44.1874337%" id="linearGradient-1">
            <stop stop-color="#2870FF" offset="0%"></stop>
            <stop stop-color="#368CFF" offset="100%"></stop>
        </linearGradient>
        <linearGradient x1="100%" y1="50%" x2="0%" y2="50%" id="linearGradient-2">
            <stop stop-color="#4A98FF" offset="0%"></stop>
            <stop stop-color="#2870FF" offset="100%"></stop>
        </linearGradient>
    </defs>
    <g id="icon/首页/创意模块" stroke="none" stroke-width="1" fill="none" fill-rule="evenodd">
        <g id="编组-5">
            <path d="M28,0.25 C35.3597576,0.25 42.4180787,3.17365232 47.6222132,8.37778682 C52.8263477,13.5819213 55.75,20.6402424 55.75,28 C55.75,35.6629509 52.6439755,42.6004509 47.6222132,47.6222132 C42.6004509,52.6439755 35.6629509,55.75 28,55.75 C20.3370491,55.75 13.3995491,52.6439755 8.37778682,47.6222132 C3.35602455,42.6004509 0.25,35.6629509 0.25,28 C0.25,20.3370491 3.35602455,13.3995491 8.37778682,8.37778682 C13.3995491,3.35602455 20.3370491,0.25 28,0.25 Z" id="路径" stroke="url(#linearGradient-1)" stroke-width="0.5" fill="#FFFFFF"></path>
            <path d="M29.6027349,37.1896936 C30.17407,37.7241721 30.4856165,38.4898136 30.4539394,39.2815722 C30.4655956,40.0968819 30.1447773,40.8802551 29.5686867,41.44318 L29.5686867,41.4083153 C29.0074448,41.9507136 28.2634622,42.2504472 27.4917478,42.2450667 C26.7116105,42.260594 25.9599207,41.945137 25.4148089,41.3734507 C24.861771,40.8259992 24.553807,40.069162 24.5636045,39.2815722 C24.5319273,38.4898136 24.8434738,37.7241721 25.4148089,37.1896936 C25.96568,36.6307909 26.7166411,36.3282457 27.4917478,36.3529422 C28.2778453,36.3227169 29.041395,36.6253721 29.6027349,37.1896936 Z M34.8627059,14.7927814 C36.532586,16.2770498 37.4385589,18.4461629 37.3235744,20.6846818 C37.3375392,22.4924076 36.7384826,24.2509243 35.6252285,25.6701359 L35.6252285,25.6352726 C34.5307369,26.7690853 33.3735633,27.8399263 32.1592165,28.8426977 C31.4465146,29.4193521 30.8670094,30.1450063 30.4608706,30.96936 C30.012256,31.8036573 29.7854196,32.7403398 29.8023283,33.6886986 L29.8023283,34.3859649 L25.4698132,34.3859649 L25.4698132,33.6886986 C25.4212223,32.3379168 25.7070666,30.9961566 26.3016561,29.7840072 C27.5356834,27.8238166 29.0812839,26.0807112 30.876792,24.6242365 L31.5699944,23.8572435 C32.2789648,23.017641 32.6823898,21.9601275 32.7137784,20.8589984 C32.6934739,19.6608587 32.2228977,18.51489 31.3966938,17.6515733 C30.4528396,16.7902871 29.2025023,16.3501035 27.9306818,16.4313572 C26.3875421,16.3015762 24.885047,16.9718064 23.9447679,18.2093864 C23.143065,19.4501996 22.7546227,20.9153979 22.835644,22.3929843 L18.6764296,22.3929843 C18.5602239,19.8157434 19.4853282,17.3008033 21.2412785,15.4203211 C23.1496577,13.6000533 25.7209578,12.6538188 28.3466032,12.8055724 C30.6915326,12.6037933 33.0239998,13.3151234 34.8627059,14.7927814 Z" id="形状结合" fill="url(#linearGradient-2)"></path>
        </g>
    </g>
</svg>