<?xml version="1.0" encoding="UTF-8"?>
<svg width="71px" height="71px" viewBox="0 0 71 71" version="1.1" xmlns="http://www.w3.org/2000/svg" xmlns:xlink="http://www.w3.org/1999/xlink">
    <title>头像/未登录</title>
    <g id="头像/未登录" stroke="none" stroke-width="1" fill="none" fill-rule="evenodd">
        <g id="08-头像/男/普通" fill="#B5CCFA" stroke="#93ADE1">
            <circle id="蒙版" cx="35.5" cy="35.5" r="35"></circle>
        </g>
        <path d="M35.5,1 C54.5538239,1 70,16.4461761 70,35.5 C70,42.5507809 67.8848989,49.1075535 64.2545747,54.5704397 C60.0599471,48.0496282 48.7708335,43.3793103 35.5027769,43.3793103 C22.2313246,43.3793103 10.9398283,48.0520192 6.74774881,54.5755437 C3.11640034,49.1115805 1,42.5529461 1,35.5 C1,16.4461761 16.4461761,1 35.5,1 Z M35.5019749,12 C28.0154483,12 21.9464193,18.0209982 21.9464193,25.4482759 C21.9464193,32.8755535 28.0154483,38.8965517 35.5019749,38.8965517 C42.9885015,38.8965517 49.0575304,32.8755535 49.0575304,25.4482759 C49.0575304,18.0209982 42.9885015,12 35.5019749,12 Z" id="形状结合" fill="#CCD9F4"></path>
    </g>
</svg>